<mxfile host="app.diagrams.net" modified="2022-05-06T01:02:03.881Z" agent="5.0 (Macintosh; Intel Mac OS X 10_15_7) AppleWebKit/537.36 (KHTML, like Gecko) Chrome/100.0.4896.127 Safari/537.36" etag="oDgT26mnLP5Qqj26bnef" version="17.5.0" type="github">
  <diagram id="qOHGim6ZNj6yDlQAbPKv" name="第 1 页">
    <mxGraphModel dx="1426" dy="1997" grid="0" gridSize="10" guides="1" tooltips="1" connect="1" arrows="1" fold="1" page="1" pageScale="1" pageWidth="827" pageHeight="1169" math="0" shadow="1">
      <root>
        <mxCell id="0" />
        <mxCell id="1" parent="0" />
        <mxCell id="G4z690N9QdItLMLLU8V_-1" value="Consumer-1" style="rounded=0;whiteSpace=wrap;html=1;verticalAlign=top;" vertex="1" parent="1">
          <mxGeometry x="30" y="160" width="320" height="190" as="geometry" />
        </mxCell>
        <mxCell id="G4z690N9QdItLMLLU8V_-24" style="edgeStyle=orthogonalEdgeStyle;rounded=0;orthogonalLoop=1;jettySize=auto;html=1;entryX=0;entryY=0.5;entryDx=0;entryDy=0;fontSize=14;curved=1;fillColor=#dae8fc;strokeColor=#6c8ebf;strokeWidth=2;" edge="1" parent="1" source="G4z690N9QdItLMLLU8V_-2" target="G4z690N9QdItLMLLU8V_-13">
          <mxGeometry relative="1" as="geometry" />
        </mxCell>
        <mxCell id="G4z690N9QdItLMLLU8V_-2" value="/v1/order/create" style="rounded=0;whiteSpace=wrap;html=1;fillColor=#dae8fc;strokeColor=#6c8ebf;fontStyle=1;fontSize=14;" vertex="1" parent="1">
          <mxGeometry x="160" y="210" width="250" height="40" as="geometry" />
        </mxCell>
        <mxCell id="G4z690N9QdItLMLLU8V_-25" style="edgeStyle=orthogonalEdgeStyle;curved=1;rounded=0;orthogonalLoop=1;jettySize=auto;html=1;entryX=0;entryY=0.5;entryDx=0;entryDy=0;fontSize=14;fillColor=#d5e8d4;strokeColor=#82b366;strokeWidth=2;" edge="1" parent="1" source="G4z690N9QdItLMLLU8V_-3" target="G4z690N9QdItLMLLU8V_-14">
          <mxGeometry relative="1" as="geometry" />
        </mxCell>
        <mxCell id="G4z690N9QdItLMLLU8V_-3" value="/v1/item/save" style="rounded=0;whiteSpace=wrap;html=1;fillColor=#d5e8d4;strokeColor=#82b366;fontStyle=1;fontSize=14;" vertex="1" parent="1">
          <mxGeometry x="160" y="270" width="250" height="40" as="geometry" />
        </mxCell>
        <mxCell id="G4z690N9QdItLMLLU8V_-4" value="Consumer-2" style="rounded=0;whiteSpace=wrap;html=1;verticalAlign=top;" vertex="1" parent="1">
          <mxGeometry x="30" y="380" width="320" height="190" as="geometry" />
        </mxCell>
        <mxCell id="G4z690N9QdItLMLLU8V_-26" style="edgeStyle=orthogonalEdgeStyle;curved=1;rounded=0;orthogonalLoop=1;jettySize=auto;html=1;entryX=0;entryY=0.5;entryDx=0;entryDy=0;fontSize=14;fillColor=#ffe6cc;strokeColor=#d79b00;strokeWidth=2;" edge="1" parent="1" source="G4z690N9QdItLMLLU8V_-5" target="G4z690N9QdItLMLLU8V_-22">
          <mxGeometry relative="1" as="geometry" />
        </mxCell>
        <mxCell id="G4z690N9QdItLMLLU8V_-5" value="/v2/order/create" style="rounded=0;whiteSpace=wrap;html=1;fillColor=#ffe6cc;strokeColor=#d79b00;fontStyle=1;fontSize=14;" vertex="1" parent="1">
          <mxGeometry x="160" y="430" width="250" height="40" as="geometry" />
        </mxCell>
        <mxCell id="G4z690N9QdItLMLLU8V_-27" style="edgeStyle=orthogonalEdgeStyle;curved=1;rounded=0;orthogonalLoop=1;jettySize=auto;html=1;entryX=0;entryY=0.5;entryDx=0;entryDy=0;fontSize=14;fillColor=#fff2cc;strokeColor=#d6b656;strokeWidth=2;" edge="1" parent="1" source="G4z690N9QdItLMLLU8V_-6" target="G4z690N9QdItLMLLU8V_-23">
          <mxGeometry relative="1" as="geometry" />
        </mxCell>
        <mxCell id="G4z690N9QdItLMLLU8V_-6" value="/v2/user/save" style="rounded=0;whiteSpace=wrap;html=1;fillColor=#fff2cc;strokeColor=#d6b656;fontStyle=1;fontSize=14;" vertex="1" parent="1">
          <mxGeometry x="160" y="490" width="250" height="40" as="geometry" />
        </mxCell>
        <mxCell id="G4z690N9QdItLMLLU8V_-7" value="Consumer-3" style="rounded=0;whiteSpace=wrap;html=1;verticalAlign=top;" vertex="1" parent="1">
          <mxGeometry x="30" y="600" width="320" height="190" as="geometry" />
        </mxCell>
        <mxCell id="G4z690N9QdItLMLLU8V_-28" style="edgeStyle=orthogonalEdgeStyle;curved=1;rounded=0;orthogonalLoop=1;jettySize=auto;html=1;entryX=0;entryY=0.5;entryDx=0;entryDy=0;fontSize=14;fillColor=#ffe6cc;strokeColor=#d79b00;strokeWidth=2;" edge="1" parent="1" source="G4z690N9QdItLMLLU8V_-8" target="G4z690N9QdItLMLLU8V_-22">
          <mxGeometry relative="1" as="geometry" />
        </mxCell>
        <mxCell id="G4z690N9QdItLMLLU8V_-8" value="/v2/order/create" style="rounded=0;whiteSpace=wrap;html=1;fillColor=#ffe6cc;strokeColor=#d79b00;fontStyle=1;fontSize=14;" vertex="1" parent="1">
          <mxGeometry x="160" y="650" width="250" height="40" as="geometry" />
        </mxCell>
        <mxCell id="G4z690N9QdItLMLLU8V_-29" style="edgeStyle=orthogonalEdgeStyle;curved=1;rounded=0;orthogonalLoop=1;jettySize=auto;html=1;entryX=0;entryY=0.5;entryDx=0;entryDy=0;fontSize=14;fillColor=#d5e8d4;strokeColor=#82b366;strokeWidth=2;" edge="1" parent="1" source="G4z690N9QdItLMLLU8V_-9" target="G4z690N9QdItLMLLU8V_-14">
          <mxGeometry relative="1" as="geometry" />
        </mxCell>
        <mxCell id="G4z690N9QdItLMLLU8V_-9" value="/v1/item/save" style="rounded=0;whiteSpace=wrap;html=1;fillColor=#d5e8d4;strokeColor=#82b366;fontStyle=1;fontSize=14;" vertex="1" parent="1">
          <mxGeometry x="160" y="710" width="250" height="40" as="geometry" />
        </mxCell>
        <mxCell id="G4z690N9QdItLMLLU8V_-10" value="Provider" style="rounded=0;whiteSpace=wrap;html=1;verticalAlign=top;" vertex="1" parent="1">
          <mxGeometry x="540" y="330" width="320" height="280" as="geometry" />
        </mxCell>
        <mxCell id="G4z690N9QdItLMLLU8V_-11" value="/v1/order/create" style="rounded=0;whiteSpace=wrap;html=1;fillColor=#dae8fc;strokeColor=#6c8ebf;fontStyle=1;fontSize=14;" vertex="1" parent="1">
          <mxGeometry x="560" y="365" width="170" height="40" as="geometry" />
        </mxCell>
        <mxCell id="G4z690N9QdItLMLLU8V_-12" value="/v1/item/save" style="rounded=0;whiteSpace=wrap;html=1;fillColor=#d5e8d4;strokeColor=#82b366;fontStyle=1;fontSize=14;" vertex="1" parent="1">
          <mxGeometry x="550" y="425" width="180" height="40" as="geometry" />
        </mxCell>
        <mxCell id="G4z690N9QdItLMLLU8V_-13" value="" style="ellipse;whiteSpace=wrap;html=1;aspect=fixed;fillColor=#dae8fc;strokeColor=#6c8ebf;" vertex="1" parent="1">
          <mxGeometry x="520" y="360" width="50" height="50" as="geometry" />
        </mxCell>
        <mxCell id="G4z690N9QdItLMLLU8V_-14" value="" style="ellipse;whiteSpace=wrap;html=1;aspect=fixed;fillColor=#d5e8d4;strokeColor=#82b366;" vertex="1" parent="1">
          <mxGeometry x="520" y="420" width="50" height="50" as="geometry" />
        </mxCell>
        <mxCell id="G4z690N9QdItLMLLU8V_-20" value="/v2/order/create" style="rounded=0;whiteSpace=wrap;html=1;fillColor=#ffe6cc;strokeColor=#d79b00;fontStyle=1;fontSize=14;" vertex="1" parent="1">
          <mxGeometry x="560" y="485" width="170" height="40" as="geometry" />
        </mxCell>
        <mxCell id="G4z690N9QdItLMLLU8V_-21" value="/v2/item/save" style="rounded=0;whiteSpace=wrap;html=1;fillColor=#fff2cc;strokeColor=#d6b656;fontStyle=1;fontSize=14;" vertex="1" parent="1">
          <mxGeometry x="550" y="545" width="180" height="40" as="geometry" />
        </mxCell>
        <mxCell id="G4z690N9QdItLMLLU8V_-22" value="" style="ellipse;whiteSpace=wrap;html=1;aspect=fixed;fillColor=#ffe6cc;strokeColor=#d79b00;" vertex="1" parent="1">
          <mxGeometry x="520" y="480" width="50" height="50" as="geometry" />
        </mxCell>
        <mxCell id="G4z690N9QdItLMLLU8V_-23" value="" style="ellipse;whiteSpace=wrap;html=1;aspect=fixed;fillColor=#fff2cc;strokeColor=#d6b656;" vertex="1" parent="1">
          <mxGeometry x="520" y="540" width="50" height="50" as="geometry" />
        </mxCell>
        <mxCell id="G4z690N9QdItLMLLU8V_-30" value="应用级：后端开发同学解决" style="text;html=1;strokeColor=none;fillColor=none;align=center;verticalAlign=middle;whiteSpace=wrap;rounded=0;fontSize=17;fontStyle=1" vertex="1" parent="1">
          <mxGeometry x="363" y="72" width="239" height="60" as="geometry" />
        </mxCell>
        <mxCell id="G4z690N9QdItLMLLU8V_-31" value="Consumer-1" style="rounded=0;whiteSpace=wrap;html=1;verticalAlign=top;" vertex="1" parent="1">
          <mxGeometry x="20" y="930" width="320" height="190" as="geometry" />
        </mxCell>
        <mxCell id="G4z690N9QdItLMLLU8V_-32" style="edgeStyle=orthogonalEdgeStyle;rounded=0;orthogonalLoop=1;jettySize=auto;html=1;entryX=0;entryY=0.5;entryDx=0;entryDy=0;fontSize=14;curved=1;fillColor=#dae8fc;strokeColor=#6c8ebf;strokeWidth=2;" edge="1" parent="1" source="G4z690N9QdItLMLLU8V_-33" target="G4z690N9QdItLMLLU8V_-49">
          <mxGeometry relative="1" as="geometry" />
        </mxCell>
        <mxCell id="G4z690N9QdItLMLLU8V_-33" value="/v1/order/create" style="rounded=0;whiteSpace=wrap;html=1;fillColor=#dae8fc;strokeColor=#6c8ebf;fontStyle=1;fontSize=14;" vertex="1" parent="1">
          <mxGeometry x="150" y="980" width="250" height="40" as="geometry" />
        </mxCell>
        <mxCell id="G4z690N9QdItLMLLU8V_-34" style="edgeStyle=orthogonalEdgeStyle;curved=1;rounded=0;orthogonalLoop=1;jettySize=auto;html=1;entryX=0;entryY=0.5;entryDx=0;entryDy=0;fontSize=14;fillColor=#d5e8d4;strokeColor=#82b366;strokeWidth=2;" edge="1" parent="1" source="G4z690N9QdItLMLLU8V_-35" target="G4z690N9QdItLMLLU8V_-50">
          <mxGeometry relative="1" as="geometry" />
        </mxCell>
        <mxCell id="G4z690N9QdItLMLLU8V_-35" value="/v1/item/save" style="rounded=0;whiteSpace=wrap;html=1;fillColor=#d5e8d4;strokeColor=#82b366;fontStyle=1;fontSize=14;" vertex="1" parent="1">
          <mxGeometry x="150" y="1040" width="250" height="40" as="geometry" />
        </mxCell>
        <mxCell id="G4z690N9QdItLMLLU8V_-36" value="Consumer-2" style="rounded=0;whiteSpace=wrap;html=1;verticalAlign=top;" vertex="1" parent="1">
          <mxGeometry x="20" y="1150" width="320" height="190" as="geometry" />
        </mxCell>
        <mxCell id="G4z690N9QdItLMLLU8V_-37" style="edgeStyle=orthogonalEdgeStyle;curved=1;rounded=0;orthogonalLoop=1;jettySize=auto;html=1;entryX=0;entryY=0.5;entryDx=0;entryDy=0;fontSize=14;fillColor=#ffe6cc;strokeColor=#d79b00;strokeWidth=2;" edge="1" parent="1" source="G4z690N9QdItLMLLU8V_-38" target="G4z690N9QdItLMLLU8V_-63">
          <mxGeometry relative="1" as="geometry">
            <mxPoint x="520" y="1120" as="targetPoint" />
          </mxGeometry>
        </mxCell>
        <mxCell id="G4z690N9QdItLMLLU8V_-38" value="/v2/order/create" style="rounded=0;whiteSpace=wrap;html=1;fillColor=#ffe6cc;strokeColor=#d79b00;fontStyle=1;fontSize=14;" vertex="1" parent="1">
          <mxGeometry x="150" y="1200" width="250" height="40" as="geometry" />
        </mxCell>
        <mxCell id="G4z690N9QdItLMLLU8V_-39" style="edgeStyle=orthogonalEdgeStyle;curved=1;rounded=0;orthogonalLoop=1;jettySize=auto;html=1;entryX=0;entryY=0.5;entryDx=0;entryDy=0;fontSize=14;fillColor=#fff2cc;strokeColor=#d6b656;strokeWidth=2;" edge="1" parent="1" source="G4z690N9QdItLMLLU8V_-40" target="G4z690N9QdItLMLLU8V_-64">
          <mxGeometry relative="1" as="geometry">
            <mxPoint x="520" y="1180" as="targetPoint" />
          </mxGeometry>
        </mxCell>
        <mxCell id="G4z690N9QdItLMLLU8V_-40" value="/v2/user/save" style="rounded=0;whiteSpace=wrap;html=1;fillColor=#fff2cc;strokeColor=#d6b656;fontStyle=1;fontSize=14;" vertex="1" parent="1">
          <mxGeometry x="150" y="1260" width="250" height="40" as="geometry" />
        </mxCell>
        <mxCell id="G4z690N9QdItLMLLU8V_-41" value="Consumer-3" style="rounded=0;whiteSpace=wrap;html=1;verticalAlign=top;" vertex="1" parent="1">
          <mxGeometry x="20" y="1370" width="320" height="190" as="geometry" />
        </mxCell>
        <mxCell id="G4z690N9QdItLMLLU8V_-42" style="edgeStyle=orthogonalEdgeStyle;curved=1;rounded=0;orthogonalLoop=1;jettySize=auto;html=1;entryX=0;entryY=0.5;entryDx=0;entryDy=0;fontSize=14;fillColor=#ffe6cc;strokeColor=#d79b00;strokeWidth=2;" edge="1" parent="1" source="G4z690N9QdItLMLLU8V_-43" target="G4z690N9QdItLMLLU8V_-63">
          <mxGeometry relative="1" as="geometry">
            <mxPoint x="520" y="1120" as="targetPoint" />
          </mxGeometry>
        </mxCell>
        <mxCell id="G4z690N9QdItLMLLU8V_-43" value="/v2/order/create" style="rounded=0;whiteSpace=wrap;html=1;fillColor=#ffe6cc;strokeColor=#d79b00;fontStyle=1;fontSize=14;" vertex="1" parent="1">
          <mxGeometry x="150" y="1420" width="250" height="40" as="geometry" />
        </mxCell>
        <mxCell id="G4z690N9QdItLMLLU8V_-44" style="edgeStyle=orthogonalEdgeStyle;curved=1;rounded=0;orthogonalLoop=1;jettySize=auto;html=1;entryX=0;entryY=0.5;entryDx=0;entryDy=0;fontSize=14;fillColor=#d5e8d4;strokeColor=#82b366;strokeWidth=2;" edge="1" parent="1" source="G4z690N9QdItLMLLU8V_-45" target="G4z690N9QdItLMLLU8V_-50">
          <mxGeometry relative="1" as="geometry" />
        </mxCell>
        <mxCell id="G4z690N9QdItLMLLU8V_-45" value="/v1/item/save" style="rounded=0;whiteSpace=wrap;html=1;fillColor=#d5e8d4;strokeColor=#82b366;fontStyle=1;fontSize=14;" vertex="1" parent="1">
          <mxGeometry x="150" y="1480" width="250" height="40" as="geometry" />
        </mxCell>
        <mxCell id="G4z690N9QdItLMLLU8V_-46" value="Provider-v1" style="rounded=0;whiteSpace=wrap;html=1;verticalAlign=top;" vertex="1" parent="1">
          <mxGeometry x="530" y="1050" width="320" height="175" as="geometry" />
        </mxCell>
        <mxCell id="G4z690N9QdItLMLLU8V_-47" value="/v1/order/create" style="rounded=0;whiteSpace=wrap;html=1;fillColor=#dae8fc;strokeColor=#6c8ebf;fontStyle=1;fontSize=14;" vertex="1" parent="1">
          <mxGeometry x="550" y="1085" width="170" height="40" as="geometry" />
        </mxCell>
        <mxCell id="G4z690N9QdItLMLLU8V_-48" value="/v1/item/save" style="rounded=0;whiteSpace=wrap;html=1;fillColor=#d5e8d4;strokeColor=#82b366;fontStyle=1;fontSize=14;" vertex="1" parent="1">
          <mxGeometry x="540" y="1145" width="180" height="40" as="geometry" />
        </mxCell>
        <mxCell id="G4z690N9QdItLMLLU8V_-49" value="" style="ellipse;whiteSpace=wrap;html=1;aspect=fixed;" vertex="1" parent="1">
          <mxGeometry x="510" y="1080" width="50" height="50" as="geometry" />
        </mxCell>
        <mxCell id="G4z690N9QdItLMLLU8V_-50" value="" style="ellipse;whiteSpace=wrap;html=1;aspect=fixed;" vertex="1" parent="1">
          <mxGeometry x="510" y="1140" width="50" height="50" as="geometry" />
        </mxCell>
        <mxCell id="G4z690N9QdItLMLLU8V_-56" value="Provider-v2" style="rounded=0;whiteSpace=wrap;html=1;verticalAlign=top;" vertex="1" parent="1">
          <mxGeometry x="530" y="1280" width="320" height="170" as="geometry" />
        </mxCell>
        <mxCell id="G4z690N9QdItLMLLU8V_-61" value="/v2/order/create" style="rounded=0;whiteSpace=wrap;html=1;fillColor=#ffe6cc;strokeColor=#d79b00;fontStyle=1;fontSize=14;" vertex="1" parent="1">
          <mxGeometry x="550" y="1315" width="170" height="40" as="geometry" />
        </mxCell>
        <mxCell id="G4z690N9QdItLMLLU8V_-62" value="/v2/item/save" style="rounded=0;whiteSpace=wrap;html=1;fillColor=#fff2cc;strokeColor=#d6b656;fontStyle=1;fontSize=14;" vertex="1" parent="1">
          <mxGeometry x="540" y="1375" width="180" height="40" as="geometry" />
        </mxCell>
        <mxCell id="G4z690N9QdItLMLLU8V_-63" value="" style="ellipse;whiteSpace=wrap;html=1;aspect=fixed;" vertex="1" parent="1">
          <mxGeometry x="510" y="1310" width="50" height="50" as="geometry" />
        </mxCell>
        <mxCell id="G4z690N9QdItLMLLU8V_-64" value="" style="ellipse;whiteSpace=wrap;html=1;aspect=fixed;" vertex="1" parent="1">
          <mxGeometry x="510" y="1370" width="50" height="50" as="geometry" />
        </mxCell>
        <mxCell id="G4z690N9QdItLMLLU8V_-65" value="应用级：后端开发+运维同学解决" style="text;html=1;strokeColor=none;fillColor=none;align=center;verticalAlign=middle;whiteSpace=wrap;rounded=0;fontSize=17;fontStyle=1" vertex="1" parent="1">
          <mxGeometry x="350" y="850" width="254" height="60" as="geometry" />
        </mxCell>
        <mxCell id="G4z690N9QdItLMLLU8V_-66" value="Consumer-1" style="rounded=0;whiteSpace=wrap;html=1;verticalAlign=top;" vertex="1" parent="1">
          <mxGeometry x="40" y="-1040" width="320" height="190" as="geometry" />
        </mxCell>
        <mxCell id="G4z690N9QdItLMLLU8V_-80" style="edgeStyle=orthogonalEdgeStyle;curved=1;rounded=0;orthogonalLoop=1;jettySize=auto;html=1;entryX=0;entryY=0.5;entryDx=0;entryDy=0;fontSize=17;strokeWidth=2;fillColor=#dae8fc;strokeColor=#6c8ebf;" edge="1" parent="1" source="G4z690N9QdItLMLLU8V_-67" target="G4z690N9QdItLMLLU8V_-75">
          <mxGeometry relative="1" as="geometry" />
        </mxCell>
        <mxCell id="G4z690N9QdItLMLLU8V_-67" value="/v1/order/create" style="rounded=0;whiteSpace=wrap;html=1;fillColor=#dae8fc;strokeColor=#6c8ebf;fontStyle=1;fontSize=14;" vertex="1" parent="1">
          <mxGeometry x="170" y="-990" width="250" height="40" as="geometry" />
        </mxCell>
        <mxCell id="G4z690N9QdItLMLLU8V_-81" style="edgeStyle=orthogonalEdgeStyle;curved=1;rounded=0;orthogonalLoop=1;jettySize=auto;html=1;entryX=0;entryY=0.5;entryDx=0;entryDy=0;fontSize=17;strokeWidth=2;fillColor=#d5e8d4;strokeColor=#82b366;" edge="1" parent="1" source="G4z690N9QdItLMLLU8V_-68" target="G4z690N9QdItLMLLU8V_-76">
          <mxGeometry relative="1" as="geometry" />
        </mxCell>
        <mxCell id="G4z690N9QdItLMLLU8V_-68" value="/v1/item/save" style="rounded=0;whiteSpace=wrap;html=1;fillColor=#d5e8d4;strokeColor=#82b366;fontStyle=1;fontSize=14;" vertex="1" parent="1">
          <mxGeometry x="170" y="-930" width="250" height="40" as="geometry" />
        </mxCell>
        <mxCell id="G4z690N9QdItLMLLU8V_-69" value="Consumer-2" style="rounded=0;whiteSpace=wrap;html=1;verticalAlign=top;" vertex="1" parent="1">
          <mxGeometry x="40" y="-311" width="320" height="190" as="geometry" />
        </mxCell>
        <mxCell id="G4z690N9QdItLMLLU8V_-94" style="edgeStyle=orthogonalEdgeStyle;curved=1;rounded=0;orthogonalLoop=1;jettySize=auto;html=1;entryX=0;entryY=0.5;entryDx=0;entryDy=0;fontSize=17;strokeWidth=2;fillColor=#ffe6cc;strokeColor=#d79b00;" edge="1" parent="1" source="G4z690N9QdItLMLLU8V_-70" target="G4z690N9QdItLMLLU8V_-90">
          <mxGeometry relative="1" as="geometry" />
        </mxCell>
        <mxCell id="G4z690N9QdItLMLLU8V_-70" value="/v2/order/create" style="rounded=0;whiteSpace=wrap;html=1;fillColor=#ffe6cc;strokeColor=#d79b00;fontStyle=1;fontSize=14;" vertex="1" parent="1">
          <mxGeometry x="170" y="-261" width="250" height="40" as="geometry" />
        </mxCell>
        <mxCell id="G4z690N9QdItLMLLU8V_-95" style="edgeStyle=orthogonalEdgeStyle;curved=1;rounded=0;orthogonalLoop=1;jettySize=auto;html=1;entryX=0;entryY=0.5;entryDx=0;entryDy=0;fontSize=17;strokeWidth=2;fillColor=#fff2cc;strokeColor=#d6b656;" edge="1" parent="1" source="G4z690N9QdItLMLLU8V_-71" target="G4z690N9QdItLMLLU8V_-91">
          <mxGeometry relative="1" as="geometry" />
        </mxCell>
        <mxCell id="G4z690N9QdItLMLLU8V_-71" value="/v2/user/save" style="rounded=0;whiteSpace=wrap;html=1;fillColor=#fff2cc;strokeColor=#d6b656;fontStyle=1;fontSize=14;" vertex="1" parent="1">
          <mxGeometry x="170" y="-201" width="250" height="40" as="geometry" />
        </mxCell>
        <mxCell id="G4z690N9QdItLMLLU8V_-72" value="Provider-v1" style="rounded=0;whiteSpace=wrap;html=1;verticalAlign=top;" vertex="1" parent="1">
          <mxGeometry x="550" y="-920" width="320" height="175" as="geometry" />
        </mxCell>
        <mxCell id="G4z690N9QdItLMLLU8V_-73" value="/v1/order/create" style="rounded=0;whiteSpace=wrap;html=1;fillColor=#dae8fc;strokeColor=#6c8ebf;fontStyle=1;fontSize=14;" vertex="1" parent="1">
          <mxGeometry x="570" y="-885" width="170" height="40" as="geometry" />
        </mxCell>
        <mxCell id="G4z690N9QdItLMLLU8V_-74" value="/v1/item/save" style="rounded=0;whiteSpace=wrap;html=1;fillColor=#d5e8d4;strokeColor=#82b366;fontStyle=1;fontSize=14;" vertex="1" parent="1">
          <mxGeometry x="560" y="-825" width="180" height="40" as="geometry" />
        </mxCell>
        <mxCell id="G4z690N9QdItLMLLU8V_-75" value="" style="ellipse;whiteSpace=wrap;html=1;aspect=fixed;" vertex="1" parent="1">
          <mxGeometry x="530" y="-890" width="50" height="50" as="geometry" />
        </mxCell>
        <mxCell id="G4z690N9QdItLMLLU8V_-76" value="" style="ellipse;whiteSpace=wrap;html=1;aspect=fixed;" vertex="1" parent="1">
          <mxGeometry x="530" y="-830" width="50" height="50" as="geometry" />
        </mxCell>
        <mxCell id="G4z690N9QdItLMLLU8V_-77" value="Consumer-2" style="rounded=0;whiteSpace=wrap;html=1;verticalAlign=top;" vertex="1" parent="1">
          <mxGeometry x="40" y="-800" width="320" height="190" as="geometry" />
        </mxCell>
        <mxCell id="G4z690N9QdItLMLLU8V_-82" style="edgeStyle=orthogonalEdgeStyle;curved=1;rounded=0;orthogonalLoop=1;jettySize=auto;html=1;entryX=0;entryY=0.5;entryDx=0;entryDy=0;fontSize=17;strokeWidth=2;fillColor=#dae8fc;strokeColor=#6c8ebf;" edge="1" parent="1" source="G4z690N9QdItLMLLU8V_-78" target="G4z690N9QdItLMLLU8V_-75">
          <mxGeometry relative="1" as="geometry" />
        </mxCell>
        <mxCell id="G4z690N9QdItLMLLU8V_-78" value="/v1/order/create" style="rounded=0;whiteSpace=wrap;html=1;fillColor=#dae8fc;strokeColor=#6c8ebf;fontStyle=1;fontSize=14;" vertex="1" parent="1">
          <mxGeometry x="170" y="-750" width="250" height="40" as="geometry" />
        </mxCell>
        <mxCell id="G4z690N9QdItLMLLU8V_-83" style="edgeStyle=orthogonalEdgeStyle;curved=1;rounded=0;orthogonalLoop=1;jettySize=auto;html=1;entryX=0;entryY=0.5;entryDx=0;entryDy=0;fontSize=17;strokeWidth=2;fillColor=#d5e8d4;strokeColor=#82b366;" edge="1" parent="1" source="G4z690N9QdItLMLLU8V_-79" target="G4z690N9QdItLMLLU8V_-76">
          <mxGeometry relative="1" as="geometry" />
        </mxCell>
        <mxCell id="G4z690N9QdItLMLLU8V_-79" value="/v1/item/save" style="rounded=0;whiteSpace=wrap;html=1;fillColor=#d5e8d4;strokeColor=#82b366;fontStyle=1;fontSize=14;" vertex="1" parent="1">
          <mxGeometry x="170" y="-690" width="250" height="40" as="geometry" />
        </mxCell>
        <mxCell id="G4z690N9QdItLMLLU8V_-84" value="Consumer-1" style="rounded=0;whiteSpace=wrap;html=1;verticalAlign=top;" vertex="1" parent="1">
          <mxGeometry x="40" y="-541" width="320" height="190" as="geometry" />
        </mxCell>
        <mxCell id="G4z690N9QdItLMLLU8V_-92" style="edgeStyle=orthogonalEdgeStyle;curved=1;rounded=0;orthogonalLoop=1;jettySize=auto;html=1;entryX=0;entryY=0.5;entryDx=0;entryDy=0;fontSize=17;strokeWidth=2;fillColor=#ffe6cc;strokeColor=#d79b00;" edge="1" parent="1" source="G4z690N9QdItLMLLU8V_-85" target="G4z690N9QdItLMLLU8V_-90">
          <mxGeometry relative="1" as="geometry" />
        </mxCell>
        <mxCell id="G4z690N9QdItLMLLU8V_-85" value="/v2/order/create" style="rounded=0;whiteSpace=wrap;html=1;fillColor=#ffe6cc;strokeColor=#d79b00;fontStyle=1;fontSize=14;" vertex="1" parent="1">
          <mxGeometry x="170" y="-491" width="250" height="40" as="geometry" />
        </mxCell>
        <mxCell id="G4z690N9QdItLMLLU8V_-93" style="edgeStyle=orthogonalEdgeStyle;curved=1;rounded=0;orthogonalLoop=1;jettySize=auto;html=1;entryX=0;entryY=0.5;entryDx=0;entryDy=0;fontSize=17;strokeWidth=2;fillColor=#fff2cc;strokeColor=#d6b656;" edge="1" parent="1" source="G4z690N9QdItLMLLU8V_-86" target="G4z690N9QdItLMLLU8V_-91">
          <mxGeometry relative="1" as="geometry" />
        </mxCell>
        <mxCell id="G4z690N9QdItLMLLU8V_-86" value="/v2/user/save" style="rounded=0;whiteSpace=wrap;html=1;fillColor=#fff2cc;strokeColor=#d6b656;fontStyle=1;fontSize=14;" vertex="1" parent="1">
          <mxGeometry x="170" y="-431" width="250" height="40" as="geometry" />
        </mxCell>
        <mxCell id="G4z690N9QdItLMLLU8V_-87" value="Provider-v2" style="rounded=0;whiteSpace=wrap;html=1;verticalAlign=top;" vertex="1" parent="1">
          <mxGeometry x="550" y="-421" width="320" height="170" as="geometry" />
        </mxCell>
        <mxCell id="G4z690N9QdItLMLLU8V_-88" value="/v2/order/create" style="rounded=0;whiteSpace=wrap;html=1;fillColor=#ffe6cc;strokeColor=#d79b00;fontStyle=1;fontSize=14;" vertex="1" parent="1">
          <mxGeometry x="570" y="-386" width="170" height="40" as="geometry" />
        </mxCell>
        <mxCell id="G4z690N9QdItLMLLU8V_-89" value="/v2/item/save" style="rounded=0;whiteSpace=wrap;html=1;fillColor=#fff2cc;strokeColor=#d6b656;fontStyle=1;fontSize=14;" vertex="1" parent="1">
          <mxGeometry x="560" y="-326" width="180" height="40" as="geometry" />
        </mxCell>
        <mxCell id="G4z690N9QdItLMLLU8V_-90" value="" style="ellipse;whiteSpace=wrap;html=1;aspect=fixed;" vertex="1" parent="1">
          <mxGeometry x="530" y="-391" width="50" height="50" as="geometry" />
        </mxCell>
        <mxCell id="G4z690N9QdItLMLLU8V_-91" value="" style="ellipse;whiteSpace=wrap;html=1;aspect=fixed;" vertex="1" parent="1">
          <mxGeometry x="530" y="-331" width="50" height="50" as="geometry" />
        </mxCell>
        <mxCell id="G4z690N9QdItLMLLU8V_-96" value="理想的解决方案" style="text;html=1;strokeColor=none;fillColor=none;align=center;verticalAlign=middle;whiteSpace=wrap;rounded=0;fontSize=17;fontStyle=1" vertex="1" parent="1">
          <mxGeometry x="400" y="-1130" width="160" height="60" as="geometry" />
        </mxCell>
        <mxCell id="G4z690N9QdItLMLLU8V_-97" value="v1 版本升级到 v2 版本" style="shape=flexArrow;endArrow=classic;html=1;rounded=0;fontSize=17;strokeWidth=2;curved=1;" edge="1" parent="1">
          <mxGeometry width="50" height="50" relative="1" as="geometry">
            <mxPoint x="670" y="-719" as="sourcePoint" />
            <mxPoint x="670" y="-449" as="targetPoint" />
          </mxGeometry>
        </mxCell>
        <mxCell id="G4z690N9QdItLMLLU8V_-98" value="Consumer-1" style="rounded=0;whiteSpace=wrap;html=1;verticalAlign=top;" vertex="1" parent="1">
          <mxGeometry x="20" y="1754" width="320" height="190" as="geometry" />
        </mxCell>
        <mxCell id="G4z690N9QdItLMLLU8V_-99" style="edgeStyle=orthogonalEdgeStyle;rounded=0;orthogonalLoop=1;jettySize=auto;html=1;entryX=0;entryY=0.5;entryDx=0;entryDy=0;fontSize=14;curved=1;fillColor=#dae8fc;strokeColor=#6c8ebf;strokeWidth=2;" edge="1" parent="1" source="G4z690N9QdItLMLLU8V_-100" target="G4z690N9QdItLMLLU8V_-116">
          <mxGeometry relative="1" as="geometry" />
        </mxCell>
        <mxCell id="G4z690N9QdItLMLLU8V_-100" value="/v1/order/create" style="rounded=0;whiteSpace=wrap;html=1;fillColor=#dae8fc;strokeColor=#6c8ebf;fontStyle=1;fontSize=14;" vertex="1" parent="1">
          <mxGeometry x="150" y="1804" width="250" height="40" as="geometry" />
        </mxCell>
        <mxCell id="G4z690N9QdItLMLLU8V_-101" style="edgeStyle=orthogonalEdgeStyle;curved=1;rounded=0;orthogonalLoop=1;jettySize=auto;html=1;entryX=0;entryY=0.5;entryDx=0;entryDy=0;fontSize=14;fillColor=#d5e8d4;strokeColor=#82b366;strokeWidth=2;" edge="1" parent="1" source="G4z690N9QdItLMLLU8V_-102" target="G4z690N9QdItLMLLU8V_-117">
          <mxGeometry relative="1" as="geometry" />
        </mxCell>
        <mxCell id="G4z690N9QdItLMLLU8V_-130" style="edgeStyle=orthogonalEdgeStyle;curved=1;rounded=0;orthogonalLoop=1;jettySize=auto;html=1;entryX=0;entryY=0.5;entryDx=0;entryDy=0;fontSize=17;strokeWidth=2;fillColor=#d5e8d4;strokeColor=#82b366;" edge="1" parent="1" source="G4z690N9QdItLMLLU8V_-102" target="G4z690N9QdItLMLLU8V_-127">
          <mxGeometry relative="1" as="geometry" />
        </mxCell>
        <mxCell id="G4z690N9QdItLMLLU8V_-102" value="/v1/item/save" style="rounded=0;whiteSpace=wrap;html=1;fillColor=#d5e8d4;strokeColor=#82b366;fontStyle=1;fontSize=14;" vertex="1" parent="1">
          <mxGeometry x="150" y="1864" width="250" height="40" as="geometry" />
        </mxCell>
        <mxCell id="G4z690N9QdItLMLLU8V_-103" value="Consumer-2" style="rounded=0;whiteSpace=wrap;html=1;verticalAlign=top;" vertex="1" parent="1">
          <mxGeometry x="20" y="1974" width="320" height="190" as="geometry" />
        </mxCell>
        <mxCell id="G4z690N9QdItLMLLU8V_-104" style="edgeStyle=orthogonalEdgeStyle;curved=1;rounded=0;orthogonalLoop=1;jettySize=auto;html=1;entryX=0;entryY=0.5;entryDx=0;entryDy=0;fontSize=14;fillColor=#ffe6cc;strokeColor=#d79b00;strokeWidth=2;" edge="1" parent="1" source="G4z690N9QdItLMLLU8V_-105" target="G4z690N9QdItLMLLU8V_-121">
          <mxGeometry relative="1" as="geometry">
            <mxPoint x="520" y="1944" as="targetPoint" />
          </mxGeometry>
        </mxCell>
        <mxCell id="G4z690N9QdItLMLLU8V_-128" style="edgeStyle=orthogonalEdgeStyle;curved=1;rounded=0;orthogonalLoop=1;jettySize=auto;html=1;entryX=0;entryY=0.5;entryDx=0;entryDy=0;fontSize=17;strokeWidth=2;fillColor=#ffe6cc;strokeColor=#d79b00;" edge="1" parent="1" source="G4z690N9QdItLMLLU8V_-105" target="G4z690N9QdItLMLLU8V_-126">
          <mxGeometry relative="1" as="geometry" />
        </mxCell>
        <mxCell id="G4z690N9QdItLMLLU8V_-105" value="/v2/order/create" style="rounded=0;whiteSpace=wrap;html=1;fillColor=#ffe6cc;strokeColor=#d79b00;fontStyle=1;fontSize=14;" vertex="1" parent="1">
          <mxGeometry x="150" y="2024" width="250" height="40" as="geometry" />
        </mxCell>
        <mxCell id="G4z690N9QdItLMLLU8V_-106" style="edgeStyle=orthogonalEdgeStyle;curved=1;rounded=0;orthogonalLoop=1;jettySize=auto;html=1;entryX=0;entryY=0.5;entryDx=0;entryDy=0;fontSize=14;fillColor=#fff2cc;strokeColor=#d6b656;strokeWidth=2;" edge="1" parent="1" source="G4z690N9QdItLMLLU8V_-107" target="G4z690N9QdItLMLLU8V_-122">
          <mxGeometry relative="1" as="geometry">
            <mxPoint x="520" y="2004" as="targetPoint" />
          </mxGeometry>
        </mxCell>
        <mxCell id="G4z690N9QdItLMLLU8V_-107" value="/v2/user/save" style="rounded=0;whiteSpace=wrap;html=1;fillColor=#fff2cc;strokeColor=#d6b656;fontStyle=1;fontSize=14;" vertex="1" parent="1">
          <mxGeometry x="150" y="2084" width="250" height="40" as="geometry" />
        </mxCell>
        <mxCell id="G4z690N9QdItLMLLU8V_-108" value="Consumer-3" style="rounded=0;whiteSpace=wrap;html=1;verticalAlign=top;" vertex="1" parent="1">
          <mxGeometry x="20" y="2194" width="320" height="190" as="geometry" />
        </mxCell>
        <mxCell id="G4z690N9QdItLMLLU8V_-109" style="edgeStyle=orthogonalEdgeStyle;curved=1;rounded=0;orthogonalLoop=1;jettySize=auto;html=1;entryX=0;entryY=0.5;entryDx=0;entryDy=0;fontSize=14;fillColor=#ffe6cc;strokeColor=#d79b00;strokeWidth=2;" edge="1" parent="1" source="G4z690N9QdItLMLLU8V_-110" target="G4z690N9QdItLMLLU8V_-121">
          <mxGeometry relative="1" as="geometry">
            <mxPoint x="520" y="1944" as="targetPoint" />
          </mxGeometry>
        </mxCell>
        <mxCell id="G4z690N9QdItLMLLU8V_-129" style="edgeStyle=orthogonalEdgeStyle;curved=1;rounded=0;orthogonalLoop=1;jettySize=auto;html=1;entryX=0;entryY=0.5;entryDx=0;entryDy=0;fontSize=17;strokeWidth=2;fillColor=#ffe6cc;strokeColor=#d79b00;" edge="1" parent="1" source="G4z690N9QdItLMLLU8V_-110" target="G4z690N9QdItLMLLU8V_-126">
          <mxGeometry relative="1" as="geometry" />
        </mxCell>
        <mxCell id="G4z690N9QdItLMLLU8V_-110" value="/v2/order/create" style="rounded=0;whiteSpace=wrap;html=1;fillColor=#ffe6cc;strokeColor=#d79b00;fontStyle=1;fontSize=14;" vertex="1" parent="1">
          <mxGeometry x="150" y="2244" width="250" height="40" as="geometry" />
        </mxCell>
        <mxCell id="G4z690N9QdItLMLLU8V_-111" style="edgeStyle=orthogonalEdgeStyle;curved=1;rounded=0;orthogonalLoop=1;jettySize=auto;html=1;entryX=0;entryY=0.5;entryDx=0;entryDy=0;fontSize=14;fillColor=#d5e8d4;strokeColor=#82b366;strokeWidth=2;" edge="1" parent="1" source="G4z690N9QdItLMLLU8V_-112" target="G4z690N9QdItLMLLU8V_-117">
          <mxGeometry relative="1" as="geometry" />
        </mxCell>
        <mxCell id="G4z690N9QdItLMLLU8V_-131" style="edgeStyle=orthogonalEdgeStyle;curved=1;rounded=0;orthogonalLoop=1;jettySize=auto;html=1;entryX=0;entryY=0.5;entryDx=0;entryDy=0;fontSize=17;strokeWidth=2;fillColor=#d5e8d4;strokeColor=#82b366;" edge="1" parent="1" source="G4z690N9QdItLMLLU8V_-112" target="G4z690N9QdItLMLLU8V_-127">
          <mxGeometry relative="1" as="geometry" />
        </mxCell>
        <mxCell id="G4z690N9QdItLMLLU8V_-112" value="/v1/item/save" style="rounded=0;whiteSpace=wrap;html=1;fillColor=#d5e8d4;strokeColor=#82b366;fontStyle=1;fontSize=14;" vertex="1" parent="1">
          <mxGeometry x="150" y="2304" width="250" height="40" as="geometry" />
        </mxCell>
        <mxCell id="G4z690N9QdItLMLLU8V_-113" value="Provider-v1" style="rounded=0;whiteSpace=wrap;html=1;verticalAlign=top;" vertex="1" parent="1">
          <mxGeometry x="523" y="1769" width="320" height="175" as="geometry" />
        </mxCell>
        <mxCell id="G4z690N9QdItLMLLU8V_-114" value="/v1/order/create" style="rounded=0;whiteSpace=wrap;html=1;fillColor=#dae8fc;strokeColor=#6c8ebf;fontStyle=1;fontSize=14;" vertex="1" parent="1">
          <mxGeometry x="543" y="1804" width="170" height="40" as="geometry" />
        </mxCell>
        <mxCell id="G4z690N9QdItLMLLU8V_-115" value="/v1/item/save" style="rounded=0;whiteSpace=wrap;html=1;fillColor=#d5e8d4;strokeColor=#82b366;fontStyle=1;fontSize=14;" vertex="1" parent="1">
          <mxGeometry x="533" y="1864" width="180" height="40" as="geometry" />
        </mxCell>
        <mxCell id="G4z690N9QdItLMLLU8V_-116" value="" style="ellipse;whiteSpace=wrap;html=1;aspect=fixed;" vertex="1" parent="1">
          <mxGeometry x="503" y="1799" width="50" height="50" as="geometry" />
        </mxCell>
        <mxCell id="G4z690N9QdItLMLLU8V_-117" value="" style="ellipse;whiteSpace=wrap;html=1;aspect=fixed;" vertex="1" parent="1">
          <mxGeometry x="503" y="1859" width="50" height="50" as="geometry" />
        </mxCell>
        <mxCell id="G4z690N9QdItLMLLU8V_-118" value="Provider-v2" style="rounded=0;whiteSpace=wrap;html=1;verticalAlign=top;" vertex="1" parent="1">
          <mxGeometry x="523" y="2204" width="320" height="170" as="geometry" />
        </mxCell>
        <mxCell id="G4z690N9QdItLMLLU8V_-119" value="/v2/order/create" style="rounded=0;whiteSpace=wrap;html=1;fillColor=#ffe6cc;strokeColor=#d79b00;fontStyle=1;fontSize=14;" vertex="1" parent="1">
          <mxGeometry x="543" y="2239" width="170" height="40" as="geometry" />
        </mxCell>
        <mxCell id="G4z690N9QdItLMLLU8V_-120" value="/v2/item/save" style="rounded=0;whiteSpace=wrap;html=1;fillColor=#fff2cc;strokeColor=#d6b656;fontStyle=1;fontSize=14;" vertex="1" parent="1">
          <mxGeometry x="533" y="2299" width="180" height="40" as="geometry" />
        </mxCell>
        <mxCell id="G4z690N9QdItLMLLU8V_-121" value="" style="ellipse;whiteSpace=wrap;html=1;aspect=fixed;" vertex="1" parent="1">
          <mxGeometry x="503" y="2234" width="50" height="50" as="geometry" />
        </mxCell>
        <mxCell id="G4z690N9QdItLMLLU8V_-122" value="" style="ellipse;whiteSpace=wrap;html=1;aspect=fixed;" vertex="1" parent="1">
          <mxGeometry x="503" y="2294" width="50" height="50" as="geometry" />
        </mxCell>
        <mxCell id="G4z690N9QdItLMLLU8V_-123" value="Provider-v1.x" style="rounded=0;whiteSpace=wrap;html=1;verticalAlign=top;" vertex="1" parent="1">
          <mxGeometry x="523" y="1979" width="320" height="175" as="geometry" />
        </mxCell>
        <mxCell id="G4z690N9QdItLMLLU8V_-124" value="/v2/order/create" style="rounded=0;whiteSpace=wrap;html=1;fillColor=#ffe6cc;strokeColor=#d79b00;fontStyle=1;fontSize=14;" vertex="1" parent="1">
          <mxGeometry x="543" y="2014" width="170" height="40" as="geometry" />
        </mxCell>
        <mxCell id="G4z690N9QdItLMLLU8V_-125" value="/v1/item/save" style="rounded=0;whiteSpace=wrap;html=1;fillColor=#d5e8d4;strokeColor=#82b366;fontStyle=1;fontSize=14;" vertex="1" parent="1">
          <mxGeometry x="533" y="2074" width="180" height="40" as="geometry" />
        </mxCell>
        <mxCell id="G4z690N9QdItLMLLU8V_-126" value="" style="ellipse;whiteSpace=wrap;html=1;aspect=fixed;" vertex="1" parent="1">
          <mxGeometry x="503" y="2009" width="50" height="50" as="geometry" />
        </mxCell>
        <mxCell id="G4z690N9QdItLMLLU8V_-127" value="" style="ellipse;whiteSpace=wrap;html=1;aspect=fixed;" vertex="1" parent="1">
          <mxGeometry x="503" y="2069" width="50" height="50" as="geometry" />
        </mxCell>
        <mxCell id="G4z690N9QdItLMLLU8V_-132" value="接口级：后端开发+运维同学解决" style="text;html=1;strokeColor=none;fillColor=none;align=center;verticalAlign=middle;whiteSpace=wrap;rounded=0;fontSize=17;fontStyle=1" vertex="1" parent="1">
          <mxGeometry x="308" y="1675" width="254" height="60" as="geometry" />
        </mxCell>
      </root>
    </mxGraphModel>
  </diagram>
</mxfile>
